<svg width="35" height="35" viewBox="0 0 20 26" xmlns="http://www.w3.org/2000/svg">
<path fill="#a4a1a1" fill-rule="evenodd" clip-rule="evenodd" d="M15.0291 1.3792C15.8929 1.86695 16.6713 2.48199 17.3359 3.20178C17.9866 3.90604 18.5084 4.71087 18.8792 5.58219C19.0899 6.08185 19.2557 6.59785 19.3749 7.12457C19.6514 8.30749 19.6733 9.53213 19.4392 10.7235C19.3123 11.3674 19.1193 11.9977 18.8631 12.6052L18.831 12.6694C18.2791 13.9547 17.3333 15.2041 16.4196 16.438C15.9507 17.0601 15.4872 17.677 15.0961 18.276C14.9732 18.4627 14.7993 18.6134 14.5934 18.7118C14.3874 18.8101 14.1572 18.8523 13.9279 18.8338L6.54375 19.8878C6.24135 19.9275 5.93419 19.8606 5.67939 19.6993C5.42459 19.5381 5.23951 19.2935 5.15856 19.0112C4.97319 18.496 4.74564 17.9958 4.47802 17.5151C4.25458 17.1035 3.98506 16.7164 3.67423 16.3609C3.29109 15.9418 2.90259 15.5151 2.52481 15.0241C2.0911 14.4668 1.7168 13.8692 1.40755 13.2401C1.08333 12.5814 0.831023 11.8922 0.654668 11.1836C0.480283 10.4718 0.394836 9.7426 0.400134 9.01141C0.400223 8.24924 0.50014 7.4901 0.697536 6.75183C0.911749 5.96251 1.21918 5.19923 1.61385 4.47682L1.66744 4.38684C2.17811 3.5552 2.82288 2.80644 3.57777 2.16839C4.33045 1.53778 5.18695 1.03135 6.11239 0.669708L6.18741 0.644002C6.877 0.380827 7.5964 0.196192 8.33084 0.0938863C9.10935 -0.0107338 9.89791 -0.0279876 10.6806 0.0424736C11.4453 0.109499 12.2 0.256909 12.9312 0.482052C13.6595 0.705831 14.3595 1.00674 15.0184 1.3792H15.0291ZM13.9574 23.8105C13.5521 24.4804 12.9723 25.0376 12.2748 25.4275C11.6859 25.7564 11.0256 25.95 10.3457 25.993C9.66595 26.0325 8.98703 25.9042 8.37371 25.6203C7.93154 25.4112 7.53292 25.1263 7.1975 24.7797L13.9734 23.8105H13.9574ZM14.6031 20.1731V20.5973V20.7464C14.6245 21.0245 14.6245 21.3037 14.6031 21.5818L14.4718 22.1962L6.26243 23.3684L6.11775 23.0522L5.79891 21.7926V21.4276L14.5843 20.1731H14.6031ZM4.95225 15.2015C4.17199 14.416 3.51901 13.5226 3.01512 12.5512C2.46747 11.4642 2.18264 10.2727 2.18186 9.0654C2.20916 7.76772 2.55915 6.49508 3.20267 5.3534C3.20819 5.34538 3.21269 5.33675 3.21607 5.3277C4.03201 3.97024 5.29492 2.91137 6.80632 2.31748C7.98938 1.86122 9.26952 1.68488 10.5386 1.80336C11.7965 1.91181 13.0141 2.28482 14.1047 2.89588C15.5015 3.66891 16.5946 4.86125 17.2154 6.28911C17.61 7.19502 17.8132 8.1671 17.8132 9.14894C17.8132 10.1308 17.61 11.1029 17.2154 12.0088C16.4946 13.6925 14.8442 15.492 13.7618 17.1372C13.7025 17.1256 13.6415 17.1256 13.5823 17.1372L6.59466 18.1269C6.24124 17.0624 5.68428 16.0703 4.95225 15.2015Z"/>
</svg>
